<mxfile host="app.diagrams.net" modified="2023-07-13T02:37:46.835Z" agent="Mozilla/5.0 (Windows NT 10.0; Win64; x64) AppleWebKit/537.36 (KHTML, like Gecko) Chrome/114.0.0.0 Safari/537.36" version="21.6.1" etag="cGBTMdOEDYfizWaaCCw_" type="github">
  <diagram name="페이지-1" id="kSZf89w0KQRs00s6JgzR">
    <mxGraphModel>
      <root>
        <mxCell id="0" />
        <mxCell id="1" parent="0" />
      </root>
    </mxGraphModel>
  </diagram>
</mxfile>
